<?xml version="1.0" encoding="utf-8"?>
<!-- Generator: Adobe Illustrator 26.5.0, SVG Export Plug-In . SVG Version: 6.00 Build 0)  -->
<svg version="1.1" id="Ebene_1" xmlns="http://www.w3.org/2000/svg" xmlns:xlink="http://www.w3.org/1999/xlink" x="0px" y="0px"
	 viewBox="0 0 774.41 337.21" style="enable-background:new 0 0 774.41 337.21;" xml:space="preserve">
<style type="text/css">
	.st0{fill:#9FA2A9;}
	.st1{fill:#3D4045;}
	.st2{fill:#E40521;}
</style>
<g>
	<g>
		<g>
			<g>
				<g>
					<g>
						<g>
							<g>
								<g>
									<path class="st0" d="M285.7,143.76l-0.52-3.94h-8.13l-2.02,3.94h-5.99l12.5-22.84h6.51l3.64,22.84H285.7z M283.52,127.46
										l-4.1,7.78h5.14L283.52,127.46z"/>
									<path class="st0" d="M332.43,120.92l-2.96,15.23c-0.54,2.8-1.58,4.82-3.11,6.05c-1.53,1.24-3.77,1.86-6.72,1.86h-3.12
										c-2.95,0-4.95-0.62-6-1.86c-1.05-1.24-1.31-3.25-0.76-6.05l2.96-15.23h5.79l-2.93,15.13c-0.24,1.17-0.15,2.01,0.26,2.52
										c0.41,0.51,1.16,0.76,2.25,0.76h1.82c2.1,0,3.37-1.1,3.81-3.29l2.93-15.13H332.43z"/>
									<path class="st0" d="M349.15,125.64l0.91-4.72h18.91l-0.91,4.72h-6.57l-3.51,18.12h-5.76l3.51-18.12H349.15z"/>
									<path class="st0" d="M393.3,144.05h-3.51c-2.95,0-4.95-0.62-6-1.86c-1.05-1.24-1.31-3.25-0.76-6.05l1.47-7.58
										c0.56-2.8,1.61-4.82,3.14-6.07c1.53-1.25,3.77-1.87,6.72-1.87h3.51c2.95,0,4.95,0.62,6,1.87c1.05,1.25,1.29,3.27,0.73,6.07
										l-1.46,7.58c-0.54,2.8-1.58,4.82-3.11,6.05C398.49,143.43,396.26,144.05,393.3,144.05z M391.35,139.34h2.21
										c1.08,0,1.93-0.25,2.54-0.76s1.03-1.35,1.27-2.52l1.43-7.39c0.22-1.17,0.13-2.02-0.28-2.54c-0.4-0.52-1.15-0.78-2.23-0.78
										h-2.21c-1.08,0-1.94,0.26-2.55,0.78c-0.62,0.52-1.04,1.37-1.25,2.54l-1.43,7.39c-0.24,1.17-0.15,2.01,0.26,2.52
										C389.52,139.08,390.27,139.34,391.35,139.34z"/>
									<path class="st0" d="M449.74,139.34h7.97l-0.81,4.2c-1.8,0.35-3.99,0.52-6.57,0.52h-2.15c-2.95,0-4.95-0.62-6-1.86
										c-1.05-1.24-1.31-3.25-0.76-6.05l1.46-7.58c0.56-2.8,1.61-4.82,3.14-6.07c1.53-1.25,3.77-1.87,6.72-1.87h1.98
										c2.49,0,4.61,0.18,6.35,0.55l-0.78,4.16h-7.81c-1.08,0-1.94,0.26-2.56,0.78c-0.62,0.52-1.04,1.37-1.25,2.54l-1.43,7.39
										c-0.24,1.17-0.15,2.01,0.26,2.52C447.9,139.08,448.65,139.34,449.74,139.34z"/>
									<path class="st0" d="M491.19,143.76h-15.78l4.43-22.84h15.62l-0.88,4.59h-9.83l-0.85,4.23h9.18l-0.88,4.52h-9.18
										l-0.95,4.95h9.99L491.19,143.76z"/>
									<path class="st0" d="M527.31,120.92h5.79l-4.43,22.84h-5.86l-4.56-13.15l-2.54,13.15h-5.79l4.43-22.84h5.86l4.52,13.15
										L527.31,120.92z"/>
									<path class="st0" d="M549.89,125.64l0.91-4.72h18.91l-0.91,4.72h-6.57l-3.51,18.12h-5.76l3.51-18.12H549.89z"/>
									<path class="st0" d="M590.14,136.7l-1.37,7.06h-5.79l4.43-22.84h10.51c2.67,0,4.53,0.59,5.6,1.77
										c1.06,1.18,1.35,3.03,0.85,5.55l-0.26,1.37c-0.61,3.21-2.16,5.3-4.65,6.28l2.7,7.87h-6.28l-2.15-7.06H590.14z
										 M591.02,132.14h4.26c1.69,0,2.7-0.82,3.03-2.47l0.32-1.69c0.33-1.65-0.36-2.47-2.05-2.47h-4.26L591.02,132.14z"/>
									<path class="st0" d="M644.67,120.92l-2.96,15.23c-0.54,2.8-1.58,4.82-3.11,6.05c-1.53,1.24-3.77,1.86-6.72,1.86h-3.12
										c-2.95,0-4.95-0.62-6-1.86c-1.05-1.24-1.31-3.25-0.76-6.05l2.96-15.23h5.79l-2.93,15.13c-0.24,1.17-0.15,2.01,0.26,2.52
										c0.41,0.51,1.16,0.76,2.24,0.76h1.82c2.1,0,3.37-1.1,3.81-3.29l2.93-15.13H644.67z"/>
									<path class="st0" d="M673.54,136.31l9.47-15.39h5.95l-4.43,22.84H679l2.15-11.06l-6.87,11.06h-4.36l-2.57-11.06
										l-2.15,11.06h-5.53l4.43-22.84h5.95L673.54,136.31z"/>
								</g>
							</g>
						</g>
					</g>
				</g>
				<g>
					<path class="st1" d="M266.72,161.01h29.72l-18.03,93h51.26l-4.67,24.21h-80.98L266.72,161.01z"/>
					<path class="st1" d="M520.08,204.09l22.04,4.51c10.24,2.67,17.03,6.26,20.37,10.77c3.34,4.51,4.01,11.94,2,22.29l-1.5,8.18
						c-4.01,19.93-19.4,29.42-39.85,30.31c-20.46,0.89-41.35-1.32-50.81-3.1l4.17-21.54c0,0,34.97,1.32,42.4,0.67
						c5.4-0.47,6.58-0.7,10.77-3.09c2.43-1.38,3.65-3.81,4.09-6.59l0.83-3.84c0.55-2.78,0.14-4.92-1.25-6.43
						c-1.39-1.5-3.93-2.64-7.6-3.42l-21.87-4.51c-9.46-1.89-15.83-5.29-19.12-10.18c-3.29-4.9-4.04-11.96-2.25-21.2l1.5-7.51
						c3.89-19.92,17.99-29.65,41.23-30.47c23.25-0.82,38.96,1.53,47.76,3.42L569,183.72c0,0-32-1.06-37.88-0.83
						c-5.87,0.23-10.21,1.41-12.88,2.58s-4.34,3.53-5.01,7.1l-0.5,2.5C511.84,199.97,514.29,202.98,520.08,204.09z"/>
					<path class="st1" d="M459.74,200.75l-14.72,74.17c-13.66,3.46-22.89,4.79-33.69,5.58c-8.1,0.82-19.62,0.82-31.95-0.12
						c-12.91-0.98-20.32-3.59-26.08-9.28c-5.76-5.68-7.17-19.03-4.58-31.71c2.23-11.51,7.16-18.31,15.03-23.99
						c7.87-5.68,23.88-8.62,30.9-9.01c8.34-0.47,24.67,0.82,33.82,2.24c0,0,0.75-3.17,1.77-9.05c1.08-6.27,2.35-14.33-15.27-17.62
						c-17.14-3.2-44.84,1.6-44.84,1.6l3.68-20.42c13.67-3.27,30.82-5.15,50.32-3.74C453.67,161.53,464.98,173.49,459.74,200.75z
						 M395,229.17c-10.3,1.09-16.68,4.35-18.97,12.39c-1.47,5.15-0.49,9.03,1.64,11.12c1.85,1.82,9.61,3.26,12.75,3.39
						c12.93,0.55,22.37-0.3,29.1-1.07l4.85-24.46C418.18,229.63,405.3,228.07,395,229.17z"/>
					<path class="st1" d="M628.44,204.09l22.04,4.51c10.24,2.67,17.03,6.26,20.37,10.77c3.34,4.51,4.01,11.94,2,22.29l-1.5,8.18
						c-4.01,19.93-19.4,29.42-39.85,30.31c-20.46,0.89-41.35-1.32-50.81-3.1l4.17-21.54c0,0,34.97,1.32,42.4,0.67
						c5.4-0.47,6.58-0.7,10.77-3.09c2.43-1.38,3.65-3.81,4.09-6.59l0.83-3.84c0.55-2.78,0.14-4.92-1.25-6.43
						c-1.39-1.5-3.93-2.64-7.6-3.42l-21.87-4.51c-9.46-1.89-15.83-5.29-19.12-10.18c-3.29-4.9-4.04-11.96-2.25-21.2l1.5-7.51
						c3.89-19.92,17.99-29.65,41.23-30.47s38.96,1.53,47.76,3.42l-4.01,21.37c0,0-32-1.06-37.88-0.83
						c-5.87,0.23-10.21,1.41-12.88,2.58s-4.34,3.53-5.01,7.1l-0.5,2.5C620.2,199.97,622.65,202.98,628.44,204.09z"/>
				</g>
			</g>
		</g>
		<path class="st2" d="M384.85,96.11C278.51,33.79,201.37,64.45,161.57,82.54c-15.76,7.16-29.43,7.56-50.57,0.58
			c-22.95-7.58-44.63-14.71-67.75,5.7c-0.61,0.54-0.83,1.39-0.56,2.16c0.27,0.77,0.97,1.3,1.79,1.33
			c33.15,1.32,48.69,19.31,66.01,40.29c21.81,26.43,48.07,54.91,111.84,54.91c1.77,0,3.58-0.02,5.41-0.07
			c0.94-0.02,1.74-0.7,1.91-1.63c0.17-0.93-0.32-1.85-1.19-2.21c-29.13-12.15-43.38-29.9-38.12-47.48
			c4.92-16.45,25.44-30.22,56.31-37.8c25.54-6.27,70.01-11.1,136.82,1.47c0.95,0.18,1.9-0.35,2.24-1.26
			C386.05,97.62,385.69,96.6,384.85,96.11z"/>
	</g>
</g>
</svg>
