<?xml version="1.0" encoding="UTF-8" standalone="no"?><!DOCTYPE svg PUBLIC "-//W3C//DTD SVG 1.1//EN" "http://www.w3.org/Graphics/SVG/1.1/DTD/svg11.dtd"><svg width="100%" height="100%" viewBox="0 0 798 427" version="1.1" xmlns="http://www.w3.org/2000/svg" xmlns:xlink="http://www.w3.org/1999/xlink" xml:space="preserve" xmlns:serif="http://www.serif.com/" style="fill-rule:evenodd;clip-rule:evenodd;stroke-linejoin:round;stroke-miterlimit:2;"><g><path d="M11.869,388.094l-0,-349.294c-0,-14.472 11.7,-26.25 26.078,-26.25l347.772,-0l-0,401.797l-347.772,-0c-14.378,-0 -26.078,-11.775 -26.078,-26.253Zm408.397,-36.05l10.59,-45.625c3.394,-14.8 11.678,-21.997 25.528,-21.997l75.635,-0c19.009,-0 26.884,10.184 22.672,27.431l-0.947,3.934c-0.544,2.31 -1.628,3.26 -4.072,3.26l-24.85,-0c-2.31,-0 -3.666,-1.088 -2.991,-3.531l0.272,-1.088c1.222,-4.884 -1.9,-7.6 -7.331,-7.6l-47.66,0c-4.481,0 -6.925,2.309 -8.15,7.331l-7.874,33.947c-1.36,5.703 0.681,8.96 7.74,8.96l50.919,-0c2.172,-0 4.35,-1.9 4.894,-4.616l1.218,-5.566l-33.537,0c-2.444,0 -3.534,-1.087 -2.991,-3.531l2.853,-12.222c0.541,-2.306 1.494,-3.259 3.938,-3.259l61.512,-0c2.441,-0 3.528,1.087 2.985,3.531l-5.972,26.072c-3.397,14.8 -11.681,21.997 -25.531,21.997l-76.175,-0c-19.01,-0 -26.613,-10.185 -22.675,-27.428Zm160.384,-134.941l-37.653,-8.181c18.45,-2.603 38.066,-7.028 57.944,-13.897c75.24,-25.997 128.084,-74.509 134.078,-96.147c-0,0 4.159,7.028 1.028,15.922c-10.169,28.872 -53.781,91.587 -123.3,115.609c-23.669,8.178 -47.753,11.078 -70.253,10.7l38.156,-24.006Zm-145.547,-16.631c10.119,7.031 42.178,13.475 83.497,10.928l39.709,9.234l-30.947,19.713c-38.631,-3.175 -70.731,-15.403 -84.915,-25.513c-8.434,-6.009 -7.344,-14.362 -7.344,-14.362Zm199.869,-145.881l-10.616,3.64c-21.556,-0.056 -44.447,2.935 -66.972,10.716c-72.39,25.012 -116.59,91.956 -124.346,118.975c-0.075,-0.116 -0.191,-0.238 -0.247,-0.353c-4.353,-14.078 38.428,-104.582 119.95,-132.747c20.284,-7.01 42.965,-9.781 62.637,-9.603l19.594,9.372Zm3.891,4.134l12.653,-4.4l-18.369,-7.863c48.069,5.172 88.447,27.322 94.281,37.882c-14.772,-10.435 -48.419,-22.988 -88.565,-25.619Zm-30.072,49.769c0.468,1.375 0.918,2.731 1.387,4.097c-3.334,0.9 -6.706,1.834 -10.15,2.84c-0.4,-1.178 -0.791,-2.344 -1.197,-3.522c-0.212,-0.622 -0.428,-1.231 -0.644,-1.853c-2.999,0.931 -6.037,1.916 -9.096,2.941c0.234,0.675 0.465,1.337 0.696,2.015c0.366,1.066 0.722,2.119 1.091,3.182c-2.856,0.887 -5.74,1.812 -8.656,2.775c-0.347,-1.007 -0.685,-2 -1.028,-3.007c-0.228,-0.668 -0.457,-1.318 -0.681,-1.984c-1.1,0.394 -2.882,1.056 -3.982,1.463c-1.344,0.493 -3.59,1.318 -4.94,1.84c0.206,0.603 0.406,1.197 0.615,1.8c0.344,0.997 0.675,1.975 1.019,2.966c-0.137,0.05 -0.275,0.09 -0.412,0.14c-2.76,0.954 -5.475,1.922 -8.154,2.9c-0.35,-1.021 -0.7,-2.031 -1.05,-3.056c-0.159,-0.459 -0.312,-0.909 -0.468,-1.369c-2.925,1.219 -5.863,2.491 -8.8,3.8c0.075,0.225 0.147,0.447 0.228,0.672c0.381,1.11 0.762,2.207 1.144,3.313c-3.335,1.284 -6.585,2.59 -9.785,3.9c-0.4,-1.163 -0.806,-2.313 -1.209,-3.478c-52.947,24.997 -103.713,60.318 -103.713,60.318c0,0 50.041,-40.331 101.572,-66.646c-0.628,-1.85 -1.265,-3.71 -1.881,-5.55c3.169,-1.457 6.378,-2.885 9.656,-4.272c0.572,1.703 1.163,3.425 1.744,5.134c2.925,-1.381 5.834,-2.709 8.734,-3.969c-0.537,-1.587 -1.09,-3.19 -1.625,-4.768c2.663,-1.038 5.353,-2.047 8.078,-3.025c0.144,-0.05 0.282,-0.094 0.425,-0.144c0.507,1.478 1.019,2.981 1.529,4.469c1.387,-0.544 2.768,-1.085 4.14,-1.591c1.072,-0.394 3.709,-1.334 4.772,-1.709c-0.491,-1.425 -0.984,-2.869 -1.472,-4.288c2.91,-0.969 5.794,-1.887 8.641,-2.756c0.472,1.359 0.947,2.744 1.418,4.106c3.069,-1 6.107,-1.953 9.122,-2.847c-0.456,-1.303 -0.909,-2.628 -1.362,-3.925c3.459,-0.95 6.856,-1.812 10.219,-2.625c0.428,1.225 0.856,2.475 1.284,3.706c68.084,-17.887 118.062,-8.381 118.062,-8.381c0,0 -49.312,-3.8 -115.771,14.96c0.168,0.478 0.334,0.95 0.5,1.428Zm-16.891,200.372l-4.347,19.006l53.775,-0c2.444,-0 3.531,1.087 2.988,3.531l-4.078,17.653c-0.541,2.31 -1.491,3.26 -3.935,3.26l-54.45,-0l-5.569,23.9c-0.543,2.306 -1.493,3.256 -3.94,3.256l-22.81,-0c-2.443,-0 -3.531,-1.085 -2.987,-3.528l20.366,-88.263c0.543,-2.309 1.496,-3.259 3.94,-3.259l124.647,-0c2.444,-0 3.528,1.087 2.988,3.531l-15.482,67.213l65.45,-0c2.444,-0 3.532,1.087 2.988,3.531l-4.075,17.519c-0.541,2.306 -1.491,3.256 -3.935,3.256l-92.065,-0c-2.444,-0 -3.528,-1.085 -2.988,-3.528l15.482,-67.078l-71.963,-0Zm167.397,-308.866l-721.35,0c-20.925,0 -37.947,17.406 -37.947,38.8l-0,349.294c-0,21.4 17.022,38.803 37.947,38.803l721.35,-0c20.925,-0 37.95,-17.403 37.95,-38.803l-0,-349.294c-0,-21.394 -17.025,-38.8 -37.95,-38.8Z" style="fill:#fff;"/><path d="M197.472,215.291c0.053,0.112 -0.394,-25.547 -0.716,-45.638c-0.087,-5.422 -0.915,-15.881 -14.79,-21.337c-29.782,-12.957 -41.482,-17.363 -52.772,-24.994c-0,-0 15.578,62.525 15.487,62.244c11.356,10.512 47.653,18.143 52.791,29.725Z" style="fill:#fff;"/><path d="M263.872,141.55l4.525,-18.222c-11.288,7.625 -22.991,12.031 -52.76,24.988c-13.884,5.456 -14.712,15.909 -14.796,21.337c-0.322,20.084 -0.766,45.75 -0.722,45.638c5.143,-11.582 41.428,-19.004 52.79,-29.51c-0.031,0.094 1.625,-6.606 3.872,-15.65c-7.143,4.15 -10.034,5.469 -26.575,12.794l0.913,-5.403c7.693,-3.241 16.975,-7.022 27.109,-13.213l4.181,-16.872c-8.44,4.95 -11.431,6.447 -29.15,14.288l0.76,-5.253c8.1,-3.416 19.062,-8.11 29.853,-14.922Z" style="fill:#fff;"/><path d="M152.769,246.156c-0.482,0.86 -0.735,1.856 -1.194,2.878c0,0.007 -0.094,-7.331 -0.1,-7.337l-16.591,0.006l0,45.919l18.022,0.006l0,-24.062c0,-1.954 -0.043,-3.91 0.435,-5.554c0.997,-2.996 3.615,-3.175 5.853,-3.365l5.984,-0.072l0,-12.878c-0.006,0.006 -5.212,0.006 -5.212,0.006c-2.81,0.059 -5.682,1.097 -7.197,4.453Z" style="fill:#fff;"/><path d="M168.606,241.697l0,45.931l17.894,0l-0.022,-45.925l-17.872,-0.006Z" style="fill:#fff;"/><path d="M251.794,241.703l-12.319,0c-1.228,0 -2.484,-0.006 -3.428,0.853c-1.197,0.919 -1.525,2.681 -1.956,4.15c-0.241,-0.675 -0.428,-1.337 -0.666,-1.953c-0.806,-2.084 -2.516,-2.931 -4.225,-3.05l-16.478,-0.006l-1.872,0.144c-2.125,0.59 -3.119,3.215 -3.787,5.359c-0.091,-1.797 -0.132,-5.497 -0.147,-5.503l-15.522,0.006l-0,45.919l16.497,-0l0.028,-34.438c-0,0 0.115,-1.087 0.434,-1.553c0.319,-0.472 0.7,-0.65 1.228,-0.772l5.963,0.007c0.659,-0 1.625,0.109 1.993,0.596c0.36,0.491 0.51,0.975 0.604,1.591l-0,34.569l16.512,-0c0,-0 0.006,-33.997 0.006,-34.378c0.007,-0.378 0.116,-0.944 0.438,-1.463c0.481,-0.765 0.806,-0.734 1.337,-0.915l6.519,-0c0.284,-0 0.538,0.109 0.994,0.359c0.431,0.244 0.85,1.159 0.944,1.894l-0.019,34.503l16.441,-0l-0,-29.55c-0.051,-3.36 -0.432,-6.603 -1.335,-9.528c-1.237,-4.275 -4.759,-6.722 -8.184,-6.841Z" style="fill:#fff;"/><path d="M294.906,277.519c-0.615,0.99 -1.59,1.028 -1.59,1.028l-7.035,-0c-0.793,-0.138 -1.503,-0.51 -2.009,-1.391c-0.231,-0.531 -0.313,-1.112 -0.331,-1.744c-0,0 0.012,-6.646 -0,-6.653c0.075,-0.822 0.275,-1.581 0.75,-2.172c1.287,-1.159 3.081,-0.8 4.75,-0.859l6.078,0c-0,0 0.015,9.494 -0,9.494c-0,-0 0.087,1.181 -0.613,2.297Zm18.594,-19.463c-0.05,-3.303 -0.25,-6.49 -1.244,-9.362c-1.481,-4.766 -5.525,-6.76 -9.334,-6.891c-0.422,-0.059 -0.666,0.072 -1.194,0l-34.309,0l0.006,9.016l24.553,0.012c0.806,0.06 1.806,-0.119 2.569,0.494c1.428,1.094 0.95,3.416 0.994,5.309l-19.269,0c-2.241,0 -4.519,0.25 -6.425,1.528c-2.9,1.829 -3.753,5.797 -3.947,9.654c0.044,5 -0.528,10.743 1.284,15.018c1.429,3.432 4.282,4.644 7.091,4.894l11.563,0c2.906,-0.125 6.043,0.425 8.515,-1.044c1.188,-0.853 1.763,-2.437 2.097,-3.965c0.141,1.584 0.194,5.009 0.194,5.009l16.99,0l-0.134,-0.012l-0,-29.66Z" style="fill:#fff;"/><path d="M111.719,260.681c-0.082,0.825 -0.278,1.578 -0.76,2.163c-1.287,1.168 -3.075,0.806 -4.74,0.872l-6.085,-0c0,-0 -0.018,-9.507 0,-9.507c0,0 -0.084,-1.168 0.616,-2.29c0.616,-0.988 1.594,-1.028 1.594,-1.028l7.031,-0.013c0.791,0.15 1.5,0.525 2.016,1.403c0.225,0.531 0.303,1.116 0.328,1.744c-0,-0 -0.016,6.647 -0,6.656Zm9.659,-18.969l-11.559,0c-3.107,0.013 -17.078,0.013 -17.078,0.013c-3.729,0.275 -7.863,1.781 -9.347,6.916c-0.866,3.003 -1.057,5.7 -1.247,9.343l-0,7.332l0.006,6.065c0.053,3.297 0.25,6.497 1.247,9.363c1.478,4.768 5.531,6.65 9.331,6.884l35.76,0l-0,-9.009l-24.813,-0.013c-0.806,-0.065 -1.812,0.125 -2.569,-0.49c-1.428,-1.097 -0.953,-3.416 -1.006,-5.313l19.281,0c2.241,0 4.519,-0.241 6.425,-1.528c2.9,-1.828 3.757,-5.803 3.944,-9.644c-0.041,-5.009 0.522,-10.759 -1.284,-15.034c-1.428,-3.416 -4.281,-4.638 -7.091,-4.885Z" style="fill:#fff;"/><rect x="168.619" y="228.231" width="17.891" height="9.016" style="fill:#fff;"/><path d="M320.428,283.281l-1.2,0l0,-1.631l1.2,-0c0.806,0.031 0.991,0.4 0.991,0.819c-0,0.412 -0.185,0.775 -0.991,0.812Zm0.759,0.347l0,-0.019c0.622,-0.143 0.997,-0.637 0.997,-1.265c0,-1.05 -0.915,-1.319 -1.793,-1.319l-1.885,-0l0,5.266l0.735,-0l-0,-2.379l1.015,0c0.297,0.025 0.588,0 0.794,0.241c0.244,0.263 0.244,0.697 0.303,1.169c0.035,0.312 0.119,0.653 0.184,0.969l0.782,-0c-0.185,-0.497 -0.241,-1.057 -0.322,-1.588c-0.078,-0.581 -0.166,-0.922 -0.81,-1.075Z" style="fill:#fff;"/><path d="M320.256,287.603c-2.144,0 -3.878,-1.737 -3.878,-3.881c0,-2.144 1.734,-3.881 3.878,-3.881c2.141,-0 3.885,1.737 3.885,3.881c-0,2.144 -1.744,3.881 -3.885,3.881Zm-0.034,-8.506c-2.531,-0 -4.585,2.059 -4.585,4.597c0,2.531 2.054,4.584 4.585,4.584c2.534,0 4.591,-2.053 4.591,-4.584c-0,-2.538 -2.057,-4.597 -4.591,-4.597Z" style="fill:#fff;"/></g></svg>