<svg viewBox="0 0 286 86" xmlns="http://www.w3.org/2000/svg" xml:space="preserve" style="fill-rule:evenodd;clip-rule:evenodd;stroke-linejoin:round;stroke-miterlimit:2"><path d="M59.292 135.019c-23.958-15.291-21.996-48.168 4.374-73.431 26.37-25.272 67.158-33.354 91.107-18.054 23.949 15.291 21.987 48.177-4.374 73.44-26.37 25.263-67.158 33.336-91.107 18.045Zm133.983-10.548c-6.858 4.662-13.383 8.487-21.258 11.61-5.823 2.133-14.391 5.58-19.494 1.935-.342-.513.009-1.359.351-2.205 7.218-6.876 15.795-13.041 22.671-20.43 4.122-4.707 7.911-9.927 10.674-15.336 22.77-39.474-1.638-80.631-43.947-95.508 4.428 2.61 9.549 4.896 13.293 7.839 4.428 3.969 8.847 7.947 12.582 12.249l5.094 7.722c2.025 4.455 3.708 9.747 1.629 14.823l-2.052.99c-2.772-.459-3.492-1.494-6.057-2.943-1.701-1.215-2.808-2.277-4.509-3.492-5.112-3.645-9.882-6.777-15.336-9.576-5.454-2.79-11.259-4.743-18.081-6.876C82.413 11.017 27.936 35.263 4.5 70.993c3.437-4.374 6.534-7.902 11.34-11.574 9.612-7.353 19.224-14.697 31.545-17.928 4.788-.954 10.611-3.087 14.706-.99.342.513.675 1.026.333 1.872-1.035 1.179-2.871 2.79-3.906 3.969-1.719 1.512-3.312 2.907-5.031 4.419-6.183 5.688-12.357 11.394-17.865 18.117-1.377 2.025-2.412 3.195-3.789 5.22-27.9 39.915-4.887 85.824 40.842 100.404-2.385-.891-4.428-2.619-6.813-3.501-4.437-2.61-7.839-5.04-11.583-7.983-5.103-5.004-9.522-10.332-12.564-16.335-2.034-4.446-4.734-9.927-.954-15.147.693-.333 1.377-.657 2.403-.477 7.155 4.014 13.284 9.198 19.755 13.536 4.77 3.132 9.891 5.418 16.029 7.884 4.779 1.764 9.216 3.015 14.337 3.933 45.423 8.631 95.454-14.148 117.171-48.375-5.166 5.886-10.323 11.763-17.181 16.434Z" style="fill:#006a51;fill-rule:nonzero" transform="scale(.48045)"/><path d="m59.292 135.019 2.421-3.789c-5.013-3.204-8.631-7.164-11.043-11.655-2.412-4.5-3.636-9.567-3.636-15.039 0-6.21 1.584-12.933 4.86-19.719 3.276-6.777 8.226-13.608 14.886-19.98 8.226-7.893 17.982-14.049 28.152-18.207 10.17-4.176 20.745-6.336 30.546-6.336 10.224 0 19.557 2.349 26.874 7.029 5.013 3.204 8.622 7.164 11.043 11.664 2.412 4.491 3.636 9.558 3.636 15.03 0 6.21-1.593 12.933-4.869 19.719-3.267 6.786-8.226 13.608-14.877 19.989-8.226 7.884-17.983 14.04-28.152 18.207-10.17 4.167-20.745 6.327-30.546 6.327-10.224 0-19.557-2.349-26.874-7.029l-2.421 3.789-2.421 3.798c9.099 5.796 20.133 8.442 31.716 8.442 11.115 0 22.779-2.43 33.957-7.002 11.169-4.581 21.861-11.313 30.969-20.034 7.353-7.056 12.969-14.724 16.758-22.572 3.789-7.848 5.76-15.885 5.76-23.634 0-6.813-1.548-13.41-4.707-19.287-3.15-5.886-7.911-11.025-14.13-14.985-9.099-5.805-20.133-8.451-31.716-8.451-11.124 0-22.779 2.43-33.957 7.002-11.178 4.581-21.87 11.322-30.969 20.043-7.362 7.047-12.969 14.715-16.758 22.572-3.789 7.848-5.76 15.876-5.76 23.625-.009 6.813 1.539 13.41 4.707 19.296 3.15 5.877 7.911 11.016 14.121 14.985l2.43-3.798Zm133.983-10.548-2.529-3.726c-6.723 4.572-12.897 8.182-20.385 11.151l1.656 4.185-1.548-4.23c-2.034.747-4.248 1.593-6.408 2.223-2.16.639-4.257 1.044-5.859 1.035-.738 0-1.368-.072-1.872-.207a3.609 3.609 0 0 1-1.197-.549l-2.61 3.663 3.762-2.466-3.087 2.025 3.573-.918a3.57 3.57 0 0 0-.486-1.107l-3.087 2.025 3.573-.918-3.267.837h3.375c0-.207-.018-.495-.108-.837l-3.267.837h3.375-2.556l2.511.513c.018-.09.045-.243.045-.513h-2.556l2.511.513-.981-.198.963.288.018-.09-.981-.198.963.288c0-.009.081-.243.225-.576l-4.167-1.71 3.105 3.258c3.447-3.285 7.335-6.498 11.277-9.855 3.933-3.357 7.929-6.849 11.583-10.773l.09-.099c4.311-4.923 8.307-10.404 11.295-16.245l-4.005-2.052 3.897 2.25c6.345-10.998 9.315-22.302 9.315-33.21 0-15.318-5.823-29.745-15.66-41.652-9.846-11.916-23.697-21.402-40.005-27.144a4.514 4.514 0 0 0-5.571 2.349 4.513 4.513 0 0 0 1.791 5.778c2.376 1.395 4.797 2.637 7.02 3.861 2.223 1.215 4.248 2.43 5.778 3.636l2.781-3.537-3.006 3.348c4.419 3.969 8.712 7.839 12.195 11.853l3.393-2.952-3.753 2.475 5.085 7.722 3.762-2.475-4.095 1.872c.63 1.377 1.188 2.772 1.575 4.131.387 1.359.603 2.655.603 3.852-.009 1.152-.189 2.205-.621 3.258l4.167 1.71-1.953-4.05-2.061.99 1.962 4.05.729-4.437c-.45-.081-.72-.153-.918-.234-.297-.108-.54-.234-1.116-.603-.558-.36-1.404-.945-2.547-1.584l-2.205 3.915 2.61-3.663a35.39 35.39 0 0 1-2.025-1.575c-.702-.567-1.494-1.215-2.484-1.917v-.009c-5.193-3.699-10.17-6.975-15.894-9.9-5.859-3.006-11.925-5.022-18.793-7.173l-.017-.009c-9.702-2.979-19.71-4.347-29.682-4.347-20.088.009-40.059 5.517-57.492 14.724C25.551 40.564 10.629 53.461.738 68.527a4.52 4.52 0 0 0 1.134 6.12 4.533 4.533 0 0 0 6.164-.864c1.684-2.142 3.223-3.996 4.879-5.733a48.256 48.256 0 0 1 5.661-5.058c4.806-3.672 9.495-7.254 14.373-10.251 4.887-2.997 9.954-5.427 15.579-6.903l-1.143-4.347.882 4.41c1.845-.369 3.636-.846 5.292-1.206 1.656-.36 3.168-.594 4.32-.585 1.044 0 1.728.171 2.16.396l2.052-4.005-3.753 2.484.063.099 2.124-1.188-2.313.729c.072.252.162.405.189.459l2.124-1.188-2.313.729 2.907-.927h-3.051c0 .342.063.684.144.927l2.907-.927h-3.051 2.718l-2.529-1.035a3.023 3.023 0 0 0-.189 1.035h2.718l-2.529-1.035 4.167 1.71-3.384-2.961c-.324.369-.99 1.026-1.701 1.719-.729.702-1.494 1.44-2.205 2.241l3.384 2.97-2.97-3.384c-1.719 1.512-3.312 2.907-5.022 4.419l-.081.072c-6.183 5.697-12.537 11.538-18.306 18.576l-.243.324a61.574 61.574 0 0 1-1.764 2.43 64.114 64.114 0 0 0-2.016 2.79l3.717 2.529-3.69-2.574c-8.811 12.591-12.942 26.001-12.933 38.952 0 15.21 5.661 29.682 15.48 41.598 9.837 11.934 23.823 21.357 40.617 26.712 2.314.738 4.83-.522 5.625-2.817.792-2.313-.396-4.842-2.691-5.688-.684-.252-1.575-.747-2.682-1.404-1.107-.648-2.439-1.458-4.131-2.097l-1.566 4.221 2.286-3.879c-4.248-2.502-7.434-4.77-11.088-7.641l-2.781 3.537 3.15-3.213c-4.896-4.797-8.973-9.774-11.7-15.156l-4.014 2.034 4.095-1.863c-.657-1.44-1.305-2.835-1.755-4.122-.45-1.296-.693-2.448-.693-3.402 0-.549.072-1.044.225-1.53a5.56 5.56 0 0 1 .819-1.584l-3.645-2.646 1.971 4.05c.135-.063.225-.108.279-.135l.036-.018h.009l-.468-1.251v1.323c.216.009.459-.063.468-.072l-.468-1.251v1.323-1.242l-.225 1.224c.054.009.135.018.225.018v-1.242l-.225 1.224.801-4.428-2.205 3.924c3.339 1.872 6.516 4.068 9.702 6.372 3.186 2.295 6.372 4.716 9.747 6.984l.045.018c5.175 3.393 10.593 5.796 16.812 8.298l.117.045c4.977 1.836 9.729 3.177 15.111 4.149l-.045-.009c6.822 1.296 13.734 1.908 20.628 1.908 20.52-.009 40.878-5.418 58.581-14.625 17.703-9.216 32.778-22.221 42.597-37.674a4.518 4.518 0 0 0-1.107-6.012 4.511 4.511 0 0 0-6.075.639c-5.166 5.886-10.062 11.412-16.326 15.669l2.529 3.726 2.529 3.717c7.452-5.076 12.87-11.313 18.027-17.181l-3.375-2.97-3.807-2.412c-8.775 13.851-22.662 25.947-39.141 34.515-16.479 8.577-35.505 13.608-54.432 13.608-6.354 0-12.708-.567-18.954-1.755l-.045-.009c-4.869-.873-8.991-2.034-13.572-3.726l-1.557 4.221 1.674-4.176c-6.057-2.439-10.872-4.599-15.237-7.47l-2.466 3.762 2.511-3.735c-3.096-2.07-6.21-4.419-9.495-6.804-3.285-2.376-6.75-4.778-10.575-6.921a4.506 4.506 0 0 0-1.404-.504 7.84 7.84 0 0 0-1.368-.126c-.909 0-1.764.18-2.412.405-.648.216-1.098.45-1.377.576a4.463 4.463 0 0 0-1.674 1.413 14.498 14.498 0 0 0-2.124 4.167 14.11 14.11 0 0 0-.639 4.23c.009 2.376.549 4.5 1.197 6.363.657 1.872 1.431 3.51 2.061 4.896l.081.171c3.357 6.606 8.118 12.294 13.428 17.505.135.135.225.207.369.324 3.834 3.015 7.461 5.607 12.078 8.325.225.135.477.252.719.342.694.252 1.585.747 2.692 1.404 1.107.648 2.43 1.458 4.122 2.097l1.566-4.221 1.368-4.293c-15.273-4.86-27.765-13.365-36.405-23.85-8.64-10.503-13.428-22.923-13.428-35.883.009-11.043 3.465-22.554 11.313-33.804l.027-.045c.621-.909 1.17-1.629 1.773-2.43a69.479 69.479 0 0 0 2.016-2.781l-3.717-2.538 3.483 2.853c5.247-6.417 11.25-11.97 17.433-17.667l-3.051-3.303 2.97 3.375c1.719-1.503 3.312-2.907 5.031-4.41a8.98 8.98 0 0 0 .414-.414c.315-.369.99-1.035 1.701-1.728.72-.702 1.494-1.431 2.205-2.241.324-.378.585-.792.774-1.251a6.328 6.328 0 0 0 .486-2.394c.009-.999-.279-1.908-.558-2.52-.288-.612-.549-.981-.666-1.161a4.69 4.69 0 0 0-1.702-1.521c-2.096-1.071-4.274-1.386-6.263-1.386-2.232 0-4.302.378-6.228.792-1.917.423-3.681.882-5.148 1.17l-.261.063c-6.696 1.755-12.6 4.617-18 7.938-5.409 3.321-10.332 7.101-15.138 10.773a56.079 56.079 0 0 0-6.696 5.994c-1.953 2.043-3.681 4.131-5.445 6.372L4.5 70.993l3.762 2.475c8.883-13.563 22.689-25.596 38.925-34.164 16.227-8.577 34.857-13.689 53.289-13.68 9.153 0 18.261 1.251 27.036 3.951l-.018-.009c6.777 2.115 12.321 4.005 17.37 6.588 5.184 2.664 9.747 5.652 14.778 9.234l-.009-.009c.72.513 1.332 1.008 2.034 1.584.702.567 1.494 1.215 2.484 1.926.153.108.243.162.405.252.522.297.945.567 1.386.855.333.216.675.441 1.071.693.694.44 1.426.817 2.187 1.125.864.351 1.836.612 2.88.783a4.476 4.476 0 0 0 2.691-.387l2.052-.99a4.48 4.48 0 0 0 2.214-2.349 17.643 17.643 0 0 0 1.287-6.669c0-2.25-.396-4.374-.954-6.336-.558-1.953-1.296-3.753-2.034-5.382a5.087 5.087 0 0 0-.342-.612l-5.085-7.722a5.956 5.956 0 0 0-.36-.477c-3.996-4.59-8.55-8.667-12.978-12.645l-.225-.189c-2.214-1.737-4.626-3.141-7.002-4.446-2.376-1.314-4.725-2.52-6.786-3.735l-2.286 3.879-1.494 4.248c14.886 5.229 27.369 13.851 36.045 24.381 8.694 10.539 13.599 22.905 13.608 35.919-.009 9.288-2.493 18.963-8.109 28.719l-.108.198c-2.538 4.968-6.111 9.918-10.053 14.409l3.384 2.97-3.294-3.069c-3.231 3.474-6.957 6.759-10.836 10.053-3.87 3.294-7.875 6.607-11.646 10.188a4.559 4.559 0 0 0-1.053 1.548c-.126.306-.288.693-.459 1.215-.162.522-.36 1.179-.378 2.178 0 .414.045.882.18 1.395.126.522.36 1.08.702 1.593.306.477.684.873 1.152 1.206 1.287.918 2.7 1.53 4.104 1.908 1.413.378 2.817.513 4.185.513 2.961-.009 5.778-.639 8.397-1.404 2.61-.765 5.013-1.692 6.966-2.403l.108-.036c8.262-3.276 15.129-7.308 22.131-12.078l-2.529-3.717Z" style="fill:#fff;fill-rule:nonzero" transform="scale(.48045)"/><path d="M59.292 135.019c-23.958-15.291-21.996-48.168 4.374-73.431 26.37-25.272 67.158-33.354 91.107-18.054 23.949 15.291 21.987 48.177-4.374 73.44-26.37 25.263-67.158 33.336-91.107 18.045Z" style="fill:#fff;fill-rule:nonzero" transform="scale(.48045)"/><path d="m59.292 135.019.801-1.26c-5.409-3.455-9.405-7.812-12.069-12.771-2.664-4.959-3.987-10.53-3.996-16.452 0-13.428 6.894-28.665 20.672-41.868 17.038-16.335 40.294-25.38 60.778-25.371 10.674 0 20.574 2.448 28.485 7.497 5.418 3.465 9.414 7.812 12.078 12.771 2.655 4.959 3.987 10.53 3.987 16.452.009 13.437-6.885 28.665-20.673 41.868-17.028 16.335-40.284 25.38-60.768 25.371-10.683 0-20.583-2.448-28.494-7.497l-.801 1.26-.81 1.269c8.505 5.427 18.972 7.965 30.105 7.974 21.348-.018 45.216-9.333 62.847-26.208 14.247-13.653 21.591-29.574 21.6-44.037 0-6.363-1.44-12.456-4.356-17.874-2.907-5.418-7.281-10.161-13.095-13.878-8.505-5.427-18.981-7.974-30.105-7.974-21.357.018-45.225 9.333-62.856 26.208-14.238 13.653-21.582 29.574-21.591 44.037 0 6.372 1.44 12.456 4.347 17.874 2.907 5.418 7.29 10.17 13.104 13.878l.81-1.269Z" style="fill:#f47d30;fill-rule:nonzero" transform="scale(.48045)"/><path d="M59.292 135.019c-23.958-15.291-21.996-48.168 4.374-73.431 26.37-25.272 67.158-33.354 91.107-18.054 23.949 15.291 21.987 48.177-4.374 73.44-26.37 25.263-67.158 33.336-91.107 18.045Zm133.983-10.548c-6.858 4.662-13.383 8.487-21.258 11.61-5.823 2.133-14.391 5.58-19.494 1.935-.342-.513.009-1.359.351-2.205 7.218-6.876 15.795-13.041 22.671-20.43 4.122-4.707 7.911-9.927 10.674-15.336 22.77-39.474-1.638-80.631-43.947-95.508 4.428 2.61 9.549 4.896 13.293 7.839 4.428 3.969 8.847 7.947 12.582 12.249l5.094 7.722c2.025 4.455 3.708 9.747 1.629 14.823l-2.052.99c-2.772-.459-3.492-1.494-6.057-2.943-1.701-1.215-2.808-2.277-4.509-3.492-5.112-3.645-9.882-6.777-15.336-9.576-5.454-2.79-11.259-4.743-18.081-6.876C82.413 11.017 27.936 35.263 4.5 70.993c3.437-4.374 6.534-7.902 11.34-11.574 9.612-7.353 19.224-14.697 31.545-17.928 4.788-.954 10.611-3.087 14.706-.99.342.513.675 1.026.333 1.872-1.035 1.179-2.871 2.79-3.906 3.969-1.719 1.512-3.312 2.907-5.031 4.419-6.183 5.688-12.357 11.394-17.865 18.117-1.377 2.025-2.412 3.195-3.789 5.22-27.9 39.915-4.887 85.824 40.842 100.404-2.385-.891-4.428-2.619-6.813-3.501-4.437-2.61-7.839-5.04-11.583-7.983-5.103-5.004-9.522-10.332-12.564-16.335-2.034-4.446-4.734-9.927-.954-15.147.693-.333 1.377-.657 2.403-.477 7.155 4.014 13.284 9.198 19.755 13.536 4.77 3.132 9.891 5.418 16.029 7.884 4.779 1.764 9.216 3.015 14.337 3.933 45.423 8.631 95.454-14.148 117.171-48.375-5.166 5.886-10.323 11.763-17.181 16.434Z" style="fill:#216554;fill-rule:nonzero" transform="scale(.48045)"/><path d="m59.292 135.019.801-1.26c-5.409-3.455-9.405-7.812-12.069-12.771-2.664-4.959-3.987-10.53-3.996-16.452 0-13.428 6.894-28.665 20.672-41.868 17.038-16.335 40.294-25.38 60.778-25.371 10.674 0 20.574 2.448 28.485 7.497 5.418 3.465 9.414 7.812 12.078 12.771 2.655 4.959 3.987 10.53 3.987 16.452.009 13.437-6.885 28.665-20.673 41.868-17.028 16.335-40.284 25.38-60.768 25.371-10.683 0-20.583-2.448-28.494-7.497l-.801 1.26-.81 1.269c8.505 5.427 18.972 7.965 30.105 7.974 21.348-.018 45.216-9.333 62.847-26.208 14.247-13.653 21.591-29.574 21.6-44.037 0-6.363-1.44-12.456-4.356-17.874-2.907-5.418-7.281-10.161-13.095-13.878-8.505-5.427-18.981-7.974-30.105-7.974-21.357.018-45.225 9.333-62.856 26.208-14.238 13.653-21.582 29.574-21.591 44.037 0 6.372 1.44 12.456 4.347 17.874 2.907 5.418 7.29 10.17 13.104 13.878l.81-1.269Zm134.829-9.306-1.692-2.484c-6.813 4.635-13.212 8.388-20.961 11.457l.549 1.395-.513-1.413c-2.007.738-4.284 1.602-6.597 2.286-2.313.684-4.653 1.161-6.705 1.161-1.908 0-3.528-.396-4.806-1.314l-.873 1.215 1.251-.819-.459.297h.567s-.009-.144-.108-.297l-.459.297h.567v-.018c.009-.045.045-.198.108-.396.072-.198.162-.432.27-.693l-1.386-.576 1.035 1.089c7.11-6.786 15.714-12.969 22.734-20.502l.027-.027c4.194-4.779 8.046-10.089 10.881-15.642l-1.332-.684 1.296.756c6.111-10.584 8.91-21.348 8.91-31.716 0-14.553-5.517-28.287-14.967-39.744-9.459-11.457-22.851-20.655-38.691-26.217l-1.26 2.709c4.536 2.664 9.612 4.941 13.131 7.722l.927-1.179-.999 1.116c4.419 3.969 8.793 7.911 12.456 12.114l1.125-.981-1.251.828 5.085 7.722 1.26-.828-1.368.621c1.341 2.925 2.457 6.138 2.448 9.234 0 1.485-.243 2.952-.837 4.401l1.386.567-.648-1.35-2.061.99.657 1.35.243-1.476c-1.233-.216-1.845-.486-2.592-.918-.738-.432-1.611-1.08-2.97-1.854l-.738 1.305.873-1.215c-.81-.576-1.476-1.125-2.178-1.692a43.838 43.838 0 0 0-2.331-1.809l-.009-.009.009.009c-5.139-3.663-9.981-6.84-15.525-9.684-5.589-2.862-11.484-4.842-18.315-6.975h-.009v-.009c-9.396-2.88-19.098-4.212-28.8-4.212-19.539 0-39.06 5.382-56.097 14.382-17.028 8.991-31.581 21.609-41.13 36.171l2.43 1.746c3.42-4.338 6.39-7.731 11.07-11.313 4.806-3.672 9.576-7.317 14.634-10.422 5.058-3.105 10.395-5.679 16.38-7.245l-.378-1.449.288 1.467c1.728-.342 3.501-.81 5.247-1.188 1.746-.378 3.447-.666 4.959-.657 1.359 0 2.538.216 3.528.72l.684-1.332-1.251.828c.117.18.189.297.216.36l.018.036.072-.027h-.081l.009.027.072-.027h-.081.027-.027.027-.027l-.027.108 1.386.567-1.134-.981c-.45.513-1.152 1.197-1.863 1.89-.72.702-1.458 1.413-2.034 2.07l1.125.99-.99-1.125c-1.719 1.503-3.312 2.907-5.031 4.41l-.009.018-.018.009c-6.174 5.697-12.42 11.439-18.009 18.279l-.045.045-.036.054c-.666.981-1.251 1.755-1.854 2.556-.67.87-1.315 1.758-1.935 2.664l1.242.846-1.233-.864c-8.487 12.15-12.393 24.93-12.393 37.242 0 14.463 5.373 28.251 14.805 39.69 9.432 11.448 22.914 20.565 39.213 25.767l.972-2.844c-1.026-.378-2.061-.972-3.168-1.629-1.107-.657-2.286-1.359-3.645-1.863l-.522 1.404.756-1.296c-4.365-2.574-7.695-4.95-11.412-7.866l-.927 1.179 1.053-1.071c-5.04-4.932-9.342-10.152-12.276-15.939l-1.341.675 1.368-.621c-.657-1.422-1.341-2.898-1.863-4.374-.513-1.485-.855-2.961-.855-4.392.009-1.647.414-3.213 1.611-4.878l-1.215-.882.657 1.35c.279-.135.486-.234.666-.288.18-.063.324-.09.504-.09.09 0 .189.009.306.027l.27-1.476-.738 1.314c7.002 3.915 13.095 9.063 19.656 13.473h.009l.009.009c4.905 3.213 10.125 5.535 16.29 8.01l.036.018c4.842 1.791 9.387 3.078 14.589 4.005h-.009a107.51 107.51 0 0 0 20.07 1.863c19.989-.009 39.906-5.292 57.204-14.292 17.289-9 31.968-21.699 41.436-36.612l-2.394-1.8c-5.157 5.886-10.224 11.646-16.893 16.182l1.692 2.484c7.056-4.806 12.303-10.809 17.46-16.686l-1.125-.99-1.269-.801c-9.126 14.382-23.409 26.784-40.293 35.568-16.884 8.784-36.36 13.941-55.818 13.941-6.534 0-13.077-.576-19.512-1.8h-.009l-.009-.009c-5.04-.9-9.369-2.124-14.076-3.87l-.522 1.413.558-1.395c-6.111-2.457-11.133-4.698-15.768-7.74l-.819 1.251.837-1.242c-6.381-4.275-12.537-9.495-19.863-13.599l-.216-.126-.252-.044a4.514 4.514 0 0 0-.837-.073 4.235 4.235 0 0 0-1.458.243c-.414.136-.747.306-1.017.432l-.342.172-.216.297c-1.575 2.15-2.196 4.463-2.187 6.641 0 1.899.441 3.699 1.026 5.382.585 1.674 1.314 3.231 1.953 4.635l.018.027.009.027c3.15 6.201 7.686 11.646 12.852 16.722l.126.108c3.78 2.97 7.254 5.454 11.745 8.1l.116.063.126.045c1.027.378 2.062.981 3.169 1.638 1.107.648 2.286 1.359 3.645 1.863l.522-1.404.459-1.431c-15.786-5.031-28.773-13.842-37.809-24.804-9.036-10.971-14.112-24.084-14.112-37.791 0-11.682 3.681-23.823 11.853-35.523l.009-.009c.666-.981 1.251-1.755 1.854-2.556.594-.792 1.224-1.62 1.926-2.664l-1.233-.846 1.161.954c5.418-6.624 11.538-12.276 17.721-17.973l-1.017-1.098.99 1.125c1.719-1.512 3.312-2.907 5.031-4.419l.072-.063.063-.072c.45-.513 1.152-1.206 1.872-1.899.72-.693 1.449-1.404 2.034-2.07l.162-.18.099-.234c.162-.405.261-.828.261-1.251 0-.486-.135-.936-.288-1.269-.162-.333-.324-.576-.441-.756l-.216-.324-.351-.18c-1.539-.792-3.222-1.062-4.896-1.062-1.872 0-3.762.333-5.589.729-1.836.396-3.609.864-5.202 1.179l-.045.009-.036.009c-6.345 1.665-11.97 4.383-17.199 7.596-5.229 3.213-10.071 6.921-14.877 10.602-4.932 3.762-8.145 7.434-11.61 11.835l1.179.927 1.251.828c9.216-14.058 23.4-26.388 40.032-35.172 16.632-8.784 35.712-14.031 54.693-14.022 9.423 0 18.837 1.287 27.918 4.077h-.01c6.814 2.124 12.529 4.059 17.848 6.786 5.364 2.745 10.062 5.832 15.147 9.45l.009.009-.009-.009c.81.576 1.476 1.125 2.178 1.692.702.576 1.44 1.17 2.331 1.809l.072.045.063.045c1.206.666 1.971 1.26 2.925 1.818.954.567 2.079 1.044 3.618 1.287l.468.081 3.006-1.449.216-.531c.756-1.836 1.062-3.717 1.062-5.535 0-3.807-1.314-7.38-2.718-10.476l-.045-.108-5.202-7.902-.072-.072c-3.825-4.401-8.289-8.415-12.717-12.384l-.036-.036-.036-.027c-3.969-3.105-9.126-5.391-13.455-7.956l-.765 1.296-.495 1.413c15.354 5.4 28.296 14.31 37.368 25.299 9.072 10.998 14.283 24.057 14.283 37.836 0 9.828-2.646 20.043-8.505 30.213l-.027.036-.018.027c-2.682 5.265-6.399 10.395-10.467 15.03l1.134.99-1.098-1.026c-6.732 7.245-15.282 13.401-22.608 20.376l-.234.216-.117.297c-.126.297-.261.63-.378.999-.117.36-.225.756-.225 1.251 0 .396.081.9.378 1.35l.162.234.225.162c1.944 1.386 4.239 1.872 6.552 1.872 2.511 0 5.085-.558 7.551-1.278 2.457-.729 4.806-1.62 6.786-2.349l.018-.009h.018c8.001-3.177 14.634-7.065 21.546-11.763Z" style="fill:#f26521;fill-rule:nonzero" transform="scale(.48045)"/><path d="M139.716 79.552h-26.964V70.66c0-3.096-.306-5.202-.918-6.309-.621-1.098-1.746-1.656-3.402-1.656-1.647 0-2.754.486-3.321 1.458-.567.963-.846 3.132-.846 6.507v36.369c0 2.745.423 4.815 1.269 6.183.855 1.377 2.106 2.061 3.753 2.061 1.935 0 3.249-.711 3.933-2.142.684-1.431 1.026-4.14 1.026-8.127v-9.171h25.47c-.054 6.165-.324 10.782-.819 13.869-.495 3.078-2.07 6.237-4.743 9.477-2.664 3.231-6.147 5.67-10.44 7.326-4.293 1.648-9.603 2.467-15.93 2.467-8.064 0-14.463-1.135-19.179-3.403-4.725-2.268-8.064-5.445-10.017-9.54-1.962-4.086-2.943-9.891-2.943-17.415V76.69c0-6.552.801-11.502 2.412-14.832 1.602-3.339 5.022-6.309 10.26-8.928 5.238-2.619 11.61-3.924 19.116-3.924 7.452 0 13.824 1.296 19.116 3.897 5.283 2.601 8.802 5.877 10.548 9.837 1.746 3.96 2.619 9.558 2.619 16.812Z" style="fill:#216554;fill-rule:nonzero" transform="scale(.48045)"/><path d="M139.716 79.552v-2.88h-24.084V70.66c0-1.647-.072-3.069-.252-4.32-.198-1.251-.45-2.331-1.026-3.384v-.009a5.925 5.925 0 0 0-2.565-2.43c-1.071-.513-2.214-.702-3.357-.702-1.098 0-2.178.153-3.222.603-1.035.441-2.007 1.251-2.592 2.277-.324.558-.513 1.098-.666 1.656-.225.837-.351 1.737-.441 2.772a40.946 40.946 0 0 0-.135 3.537v36.369c0 1.521.117 2.907.378 4.194.261 1.269.675 2.448 1.323 3.51h.009c.639 1.044 1.539 1.953 2.637 2.556 1.098.612 2.349.873 3.564.873 1.314 0 2.628-.243 3.816-.891a6.413 6.413 0 0 0 2.718-2.898c.558-1.179.828-2.457 1.026-3.987.198-1.53.279-3.303.279-5.382v-6.282h22.59v-2.889l-2.889-.018c-.045 6.075-.324 10.62-.774 13.428-.387 2.421-1.683 5.139-4.122 8.1-2.34 2.826-5.355 4.968-9.252 6.462-3.843 1.485-8.811 2.286-14.895 2.286-7.803 0-13.797-1.125-17.937-3.123-2.124-1.017-3.87-2.214-5.301-3.573a15.687 15.687 0 0 1-3.357-4.608l-.009-.009.009.009c-.837-1.737-1.512-3.951-1.962-6.66-.459-2.7-.693-5.877-.693-9.513V76.69c0-3.159.198-5.886.567-8.163.36-2.277.909-4.086 1.548-5.418.603-1.242 1.584-2.52 3.069-3.807 1.476-1.287 3.438-2.565 5.886-3.789 4.743-2.376 10.656-3.627 17.829-3.627 7.128 0 13.041 1.242 17.838 3.609 2.439 1.197 4.401 2.52 5.913 3.924 1.503 1.413 2.565 2.889 3.267 4.482 1.503 3.357 2.385 8.631 2.376 15.651h2.889v-2.88 2.88h2.88c-.009-7.479-.864-13.419-2.862-17.982l.009.018-.009-.018c-1.044-2.358-2.61-4.5-4.617-6.372-2.007-1.872-4.455-3.483-7.299-4.887-5.769-2.835-12.6-4.194-20.385-4.194-7.839 0-14.67 1.368-20.403 4.23-2.79 1.395-5.157 2.907-7.101 4.599-1.944 1.692-3.465 3.573-4.473 5.661-.963 1.998-1.62 4.329-2.052 6.993-.432 2.673-.639 5.697-.639 9.09v21.924c.009 7.767.972 13.941 3.222 18.666v.009-.009a21.259 21.259 0 0 0 4.581 6.291c1.917 1.827 4.194 3.348 6.786 4.599 5.301 2.539 12.096 3.681 20.43 3.69 6.579-.009 12.222-.855 16.965-2.664 4.698-1.8 8.64-4.545 11.637-8.19 2.889-3.501 4.761-7.11 5.364-10.845v-.027.027c.531-3.357.801-8.064.846-14.301l.027-2.907h-31.266v12.051c0 1.908-.081 3.474-.234 4.662-.135 1.17-.378 1.971-.513 2.223l.009-.009c-.126.243-.162.252-.279.333-.126.063-.432.18-1.053.18-.432 0-.639-.081-.783-.162-.153-.081-.306-.198-.513-.531-.198-.315-.423-.855-.585-1.647-.162-.783-.261-1.8-.261-3.024V70.66c0-1.602.072-2.889.189-3.78a7.15 7.15 0 0 1 .189-1.026c.027-.108.063-.189.072-.234l.018-.036-.27-.135.261.153.009-.018-.27-.135.261.153-.009.009-.297-.18.225.261.072-.081-.297-.18.225.261-.162-.189.144.207.018-.018-.162-.189.144.207-.054-.072.045.081.009-.009-.054-.072.045.081.045-.027c.09-.036.387-.108.891-.108.513 0 .765.09.828.117l.027.018.027.036h-.009c.045.045.243.567.36 1.422.126.855.207 2.034.198 3.483v11.781h32.733v-2.889h-2.88Z" style="fill:#f26521;fill-rule:nonzero" transform="scale(.48045)"/><path d="M139.851 79.705h-26.964v-8.901c0-3.096-.306-5.202-.918-6.3-.612-1.107-1.746-1.656-3.393-1.656-1.656 0-2.763.477-3.33 1.449-.558.972-.846 3.141-.846 6.507v36.369c0 2.754.423 4.815 1.278 6.192.846 1.368 2.097 2.061 3.753 2.061 1.935 0 3.24-.72 3.924-2.151.684-1.431 1.026-4.14 1.026-8.127v-9.171h25.47c-.045 6.165-.315 10.791-.81 13.869-.495 3.078-2.079 6.237-4.743 9.477-2.664 3.231-6.147 5.679-10.44 7.326-4.293 1.647-9.603 2.466-15.93 2.466-8.073 0-14.463-1.134-19.188-3.402-4.716-2.268-8.055-5.445-10.017-9.531-1.962-4.095-2.934-9.9-2.934-17.424V76.834c0-6.552.801-11.493 2.403-14.832 1.602-3.33 5.031-6.309 10.269-8.928 5.238-2.619 11.61-3.924 19.116-3.924 7.452 0 13.824 1.296 19.107 3.897 5.292 2.601 8.802 5.877 10.548 9.837 1.746 3.96 2.619 9.567 2.619 16.821Z" style="fill:#216554;fill-rule:nonzero" transform="scale(.48045)"/><path d="M44.031 104.935a26.536 26.536 0 0 1-.003-.399c0-13.428 6.894-28.665 20.672-41.868 17.028-16.326 40.272-25.371 60.747-25.371h.031c10.674 0 20.574 2.448 28.485 7.497a37.475 37.475 0 0 1 6.078 4.812 1529.167 1529.167 0 0 0-23.884 6.629c-.332-.354-.679-.7-1.04-1.037-2.007-1.872-4.455-3.483-7.299-4.887-5.769-2.835-12.6-4.194-20.385-4.194-7.839 0-14.67 1.368-20.403 4.23-2.79 1.395-5.157 2.907-7.101 4.599-1.944 1.692-3.465 3.573-4.473 5.661-.963 1.998-1.62 4.329-2.052 6.993-.432 2.673-.639 5.697-.639 9.09v3.547c-11.456 6.856-19.709 13.699-25.434 20.438a56.627 56.627 0 0 0-3.3 4.26Z" style="fill:url(#a)" transform="scale(.48045)"/><path d="M52.633 163.502c-6.745-4.331-12.57-9.487-17.308-15.235-9.036-10.971-14.112-24.084-14.112-37.791 0-1.072.031-2.146.093-3.225.482-5.133 1.595-10.641 3.471-16.557l.008-.026c1.928-5.273 4.664-10.537 8.281-15.715l.009-.009c.666-.981 1.251-1.755 1.854-2.556.573-.764 1.18-1.563 1.853-2.556h.001c5.409-6.613 11.519-12.259 17.693-17.947l.001.001c1.719-1.512 3.312-2.907 5.031-4.419l.072-.063.063-.072c.45-.513 1.152-1.206 1.872-1.899.72-.693 1.449-1.404 2.034-2.07l.162-.18.099-.234c.162-.405.261-.828.261-1.251 0-.237-.033-.465-.083-.676l.056-.044 3.15-2.43-3.969-.252c-.027 0-.585-.036-1.584-.036a53.28 53.28 0 0 0-1.548.028 12.827 12.827 0 0 0-2.214-.181c-1.872 0-3.762.333-5.589.729-1.836.396-3.609.864-5.202 1.179l-.045.009-.036.009a56.485 56.485 0 0 0-7.979 2.76c-3.06 1.253-6 2.782-8.782 4.569l-.438.267a113.378 113.378 0 0 0-6.424 4.282c6.68-5.796 14.245-10.955 22.399-15.262 16.262-8.588 34.868-13.795 53.431-14.014 10.343.117 19.639 1.538 27.832 3.668.45.131.9.264 1.348.401h-.01c6.814 2.124 12.529 4.059 17.848 6.786 5.364 2.745 10.062 5.832 15.147 9.45l.009.009-.009-.009c.81.576 1.476 1.125 2.178 1.692.702.576 1.44 1.17 2.331 1.809l.072.045.063.045c.659.364 1.186.706 1.684 1.033-1.177.31-2.643.698-4.348 1.153-2.214-2.387-4.807-4.553-7.776-6.452-8.505-5.427-18.981-7.974-30.105-7.974-21.357.018-45.225 9.333-62.856 26.208-14.238 13.653-21.582 29.574-21.591 44.037 0 1.608.091 3.197.275 4.762-3.363 6.102-4.8 12.073-4.793 17.747 0 2.869.363 5.653 1.012 8.338-.11.644-.16 1.284-.157 1.913 0 1.899.441 3.699 1.026 5.382.585 1.674 1.314 3.231 1.953 4.635l.018.027.009.027c3.028 5.963 7.339 11.226 12.259 16.135Z" style="fill:url(#b)" transform="scale(.48045)"/><path d="M61.862 168.756c-4.577-2.111-10.067-5.069-15.503-9.023-6.426-4.671-12.762-10.719-17.487-18.378-4.725-7.668-7.848-16.929-7.848-28.17 0-1.92.091-3.897.282-5.934a55.947 55.947 0 0 0-.093 3.225c0 13.707 5.076 26.82 14.112 37.791 4.738 5.748 10.563 10.904 17.308 15.235-4.92-4.909-9.231-10.172-12.259-16.135l-.009-.027-.018-.027c-.639-1.404-1.368-2.961-1.953-4.635-.585-1.683-1.026-3.483-1.026-5.382-.003-.629.047-1.269.157-1.913.975 4.029 2.595 7.835 4.604 11.372 5.013 8.847 12.456 16.074 18.63 21.114.372.304.74.599 1.103.887Zm-20.556-59.458a40.751 40.751 0 0 1-.275-4.762c.009-14.463 7.353-30.384 21.591-44.037 17.631-16.875 41.499-26.19 62.856-26.208 11.124 0 21.6 2.547 30.105 7.974 2.969 1.899 5.562 4.065 7.776 6.452-1.023.272-2.132.569-3.318.889a37.475 37.475 0 0 0-6.078-4.812c-7.911-5.049-17.811-7.497-28.485-7.497h-.031c-20.475 0-43.719 9.045-60.747 25.371-13.778 13.203-20.672 28.44-20.672 41.868l.003.399a48.273 48.273 0 0 0-2.725 4.363Zm-16.521-18.63c4.019-12.654 13.83-25.153 22.654-34.408a175.953 175.953 0 0 1 11.628-11.124 172.692 172.692 0 0 1 3.645-3.087c.432-.351.765-.621.999-.801l.252-.207.025-.019c.05.211.083.439.083.676 0 .423-.099.846-.261 1.251l-.099.234-.162.18c-.585.666-1.314 1.377-2.034 2.07-.72.693-1.422 1.386-1.872 1.899l-.063.072-.072.063c-1.719 1.512-3.312 2.907-5.031 4.419l-.001-.001c-6.174 5.688-12.284 11.334-17.693 17.947h-.001c-.673.993-1.28 1.792-1.853 2.556-.603.801-1.188 1.575-1.854 2.556l-.009.009c-3.617 5.178-6.353 10.442-8.281 15.715Zm-6.798-34.474c3.52-3.79 8.019-7.929 13.81-12.021C43.895 35.634 61.63 27.32 87.89 23.031a122.27 122.27 0 0 1 11.324-.396c-18.563.219-37.169 5.426-53.431 14.014-8.154 4.307-15.719 9.466-22.399 15.262a113.81 113.81 0 0 1 6.862-4.549c-4.329 2.767-8.519 5.852-12.259 8.832Zm149.72-8.63a24.557 24.557 0 0 0-1.684-1.033l-.063-.045-.072-.045a43.838 43.838 0 0 1-2.331-1.809c-.702-.567-1.368-1.116-2.178-1.692-5.085-3.618-9.783-6.705-15.147-9.45-5.319-2.727-11.034-4.662-17.848-6.786h.01c-.448-.137-.898-.27-1.348-.401a109.283 109.283 0 0 1 24.577 9.662c6.147 3.33 10.827 6.66 13.959 9.144a80.15 80.15 0 0 1 2.749 2.291l-.624.164Zm-6.319-4.615-.009-.009.009.009Zm-122.36-.156a56.485 56.485 0 0 1 7.979-2.76l.036-.009.045-.009c1.593-.315 3.366-.783 5.202-1.179 1.827-.396 3.717-.729 5.589-.729.74 0 1.483.053 2.214.181-4.246.14-12.323.913-21.065 4.505Z" style="fill:url(#c)" transform="scale(.48045)"/><path d="M72.765 80.237V76.69c0-3.393.207-6.417.639-9.09.432-2.664 1.089-4.995 2.052-6.993 1.008-2.088 2.529-3.969 4.473-5.661 1.944-1.692 4.311-3.204 7.101-4.599 5.733-2.862 12.564-4.23 20.403-4.23 7.785 0 14.616 1.359 20.385 4.194 2.844 1.404 5.292 3.015 7.299 4.887.361.337.708.683 1.04 1.037l-.779.223c-.803.231-1.61.463-2.42.698-1.7-1.519-3.791-2.888-6.274-4.109-5.283-2.601-11.655-3.897-19.107-3.897-7.506 0-13.878 1.305-19.116 3.924-5.238 2.619-8.667 5.598-10.269 8.928-1.602 3.339-2.403 8.28-2.403 14.832v1.636a175.329 175.329 0 0 0-3.024 1.767Zm31.98-14.401c.131-.671.298-1.185.501-1.539.567-.972 1.674-1.449 3.33-1.449 1.177 0 2.091.281 2.741.845-2.195.7-4.386 1.415-6.572 2.143Z" style="fill:url(#d)" transform="scale(.48045)"/><path d="M75.789 78.47v-1.636c0-6.552.801-11.493 2.403-14.832 1.602-3.33 5.031-6.309 10.269-8.928 5.238-2.619 11.61-3.924 19.116-3.924 7.452 0 13.824 1.296 19.107 3.897 2.483 1.221 4.574 2.59 6.274 4.109-7.233 2.092-14.704 4.325-21.641 6.537-.65-.564-1.564-.845-2.741-.845-1.656 0-2.763.477-3.33 1.449-.203.354-.37.868-.501 1.539-7.837 2.62-14.521 5.111-18.795 7.227a202.722 202.722 0 0 0-10.161 5.407Z" style="fill:url(#e)" transform="scale(.48045)"/><path d="M72.279 175.951c-.072-.027-7.641-2.097-17.127-7.191-9.486-5.094-20.916-13.221-28.593-25.452-5.121-8.145-8.541-18.135-8.541-30.123 0-1.991.094-4.037.29-6.138a57.675 57.675 0 0 0-.101 3.429c0 14.463 5.373 28.251 14.805 39.69 9.432 11.448 22.914 20.565 39.213 25.767l.972-2.844c-1.026-.378-2.061-.972-3.168-1.629-1.067-.633-2.202-1.308-3.499-1.807-4.291-2.536-7.585-4.884-11.245-7.752-5.009-4.907-9.285-10.101-12.21-15.855-.655-1.417-1.335-2.887-1.855-4.358-.513-1.485-.855-2.961-.855-4.392a8.44 8.44 0 0 1 .237-1.996c.86 3.294 2.189 6.454 3.84 9.457 2.988 5.427 7.029 10.305 11.151 14.427 8.244 8.244 16.794 13.41 17.748 13.968l.09.054-1.152 2.745ZM22.017 89.5c4.334-13.332 14.334-25.935 23.253-35.31a178.927 178.927 0 0 1 13.606-12.85c-4.19.244-11.061 1.14-18.4 4.098a53.077 53.077 0 0 1 7.287-2.498c1.699-.34 3.441-.798 5.157-1.17 1.719-.372 3.395-.657 4.889-.657h.07c1.196 0 2.252.168 3.163.552-.439.471-1.024 1.041-1.615 1.617-.693.676-1.402 1.359-1.968 1.995-1.692 1.481-3.266 2.867-4.962 4.35l-.009.018-.018.009c-6.174 5.697-12.42 11.439-18.009 18.279l-.045.045-.036.054c-.666.981-1.251 1.755-1.854 2.556-.6.788-1.218 1.612-1.924 2.648l-.002-.002c-3.724 5.332-6.566 10.785-8.583 16.266ZM4.32 72.55a1.538 1.538 0 0 1-1.458-1.017 1.418 1.418 0 0 1-.099-.531c.008-.234.045-.387.081-.504.036-.117.081-.198.117-.27.072-.153.135-.261.216-.369.163-.239.34-.467.531-.684.242-.289.536-.617.882-.986-.457.658-.905 1.32-1.341 1.985l2.43 1.746a113.955 113.955 0 0 1 2.584-3.176c-.413.615-.84 1.221-1.279 1.817-.378.504-.711.918-1.098 1.278a3.122 3.122 0 0 1-.738.504 2.166 2.166 0 0 1-.288.126c-.126.036-.279.081-.54.081Zm4.067-3.952c2.436-2.857 4.942-5.374 8.362-7.991 4.806-3.672 9.576-7.317 14.634-10.422l.306-.186C22.484 55.905 13.813 63.36 9.108 67.897c-.252.242-.493.476-.721.701Zm1.02-6.731a87.688 87.688 0 0 1 12.076-13.311c12.213-10.98 32.418-23.04 66.033-28.503l.126-.018c3.725-.296 7.461-.43 11.197-.4-18.991.29-37.899 5.619-54.46 14.368C30.68 41.236 18.586 50.816 9.407 61.867Zm162.188-15.556a6.916 6.916 0 0 1-1.126-.545c-.729-.426-1.591-1.065-2.923-1.827-.77-.553-1.414-1.082-2.09-1.629a43.838 43.838 0 0 0-2.331-1.809l-.009-.009.009.009c-5.139-3.663-9.981-6.84-15.525-9.684-5.589-2.862-11.484-4.842-18.315-6.975h-.009v-.009c-.431-.131-.862-.26-1.292-.385 9.976 2.609 18.366 6.242 25.07 9.88 10.113 5.482 16.397 10.969 18.541 12.983ZM44.412 109.905a37.575 37.575 0 0 1-.381-4.97 56.627 56.627 0 0 1 3.3-4.26c5.725-6.739 13.978-13.582 25.434-20.438v3.512c-10.442 6.411-17.956 12.748-23.148 18.87-2.095 2.469-3.816 4.899-5.205 7.286Zm93.774-51.131a20.074 20.074 0 0 0-2.029-2.539c9.064-2.6 17.556-4.927 23.884-6.629a33.998 33.998 0 0 1 2.298 2.488 1540.844 1540.844 0 0 0-24.153 6.68Z" style="fill:#fff;fill-rule:nonzero" transform="scale(.48045)"/><path d="M37.525 135.383a35.384 35.384 0 0 1-1.012-8.338c-.007-5.674 1.43-11.645 4.793-17.747.198 1.681.502 3.334.912 4.951-1.897 4.429-2.699 8.701-2.699 12.796 0 1.147.063 2.282.185 3.403l-.149.207c-1.121 1.529-1.758 3.141-2.03 4.728Zm-16.219-28.132c.318-5.476 1.451-11.034 3.479-16.583l-.008.026c-1.876 5.916-2.989 11.424-3.471 16.557Zm144.199-56.003a36.722 36.722 0 0 0-2.146-2.531c1.705-.455 3.171-.843 4.348-1.153.414.272.808.532 1.241.785a9.68 9.68 0 0 0 3.063 1.186l-.291.074s-.576.153-1.656.432c-1.065.287-2.621.689-4.559 1.207ZM30.246 47.362l.372-.237a54.33 54.33 0 0 1 8.41-4.332c-3.075 1.322-5.986 2.873-8.782 4.569Zm33.742-6.34a3.353 3.353 0 0 0-.205-.593c-.162-.333-.324-.576-.441-.756l-.216-.324-.351-.18a9.336 9.336 0 0 0-2.682-.881 53.28 53.28 0 0 1 1.548-.028c.999 0 1.557.036 1.584.036l3.969.252-3.15 2.43-.056.044Zm63.058-14.719c-8.193-2.13-17.489-3.551-27.832-3.668.404-.004.809-.008 1.213-.008h.049c8.958 0 17.907 1.164 26.57 3.676Z" style="fill:#6b8b7f;fill-rule:nonzero" transform="scale(.48045)"/><path d="M72.225 175.933c-16.299-5.202-29.781-14.319-39.213-25.767-9.432-11.439-14.805-25.227-14.805-39.69 0-1.144.033-2.287.101-3.429.501-5.383 1.667-11.131 3.616-17.262l.093-.285c2.017-5.481 4.859-10.934 8.583-16.266l.002.002a59.32 59.32 0 0 1 1.924-2.648c.603-.801 1.188-1.575 1.854-2.556l.036-.054.045-.045c5.589-6.84 11.835-12.582 18.009-18.279l.018-.009.009-.018c1.696-1.483 3.27-2.869 4.962-4.35.566-.636 1.275-1.319 1.968-1.995.591-.576 1.176-1.146 1.615-1.617-.911-.384-1.967-.552-3.163-.552h-.07c-1.494 0-3.17.285-4.889.657-1.716.372-3.458.83-5.157 1.17a53.077 53.077 0 0 0-7.287 2.498 50.919 50.919 0 0 0-8.787 4.561l-.306.186c-5.058 3.105-9.828 6.75-14.634 10.422-3.42 2.617-5.926 5.134-8.362 7.991l-.075.074-.049.072a113.955 113.955 0 0 0-2.584 3.176l-2.43-1.746c.436-.665.884-1.327 1.341-1.985.455-.481.918-.956 1.388-1.423.684-1.008 1.501-2.224 2.482-3.594.3-.421.616-.857.947-1.305 9.179-11.051 21.273-20.631 34.972-27.864 16.561-8.749 35.469-14.078 54.46-14.368 10.842.086 20.578 1.572 29.145 3.813.43.125.861.254 1.292.385v.009h.009c6.831 2.133 12.726 4.113 18.315 6.975 5.544 2.844 10.386 6.021 15.525 9.684l-.009-.009.009.009c.797.577 1.575 1.18 2.331 1.809.676.547 1.32 1.076 2.09 1.629 1.332.762 2.194 1.401 2.923 1.827.377.219.72.396 1.126.545.535.503.813.789.827.805l1.8 1.854-2.211.565a9.68 9.68 0 0 1-3.063-1.186c-.433-.253-.827-.513-1.241-.785l.624-.164a80.15 80.15 0 0 0-2.749-2.291c-3.132-2.484-7.812-5.814-13.959-9.144a109.283 109.283 0 0 0-24.577-9.662c-8.663-2.512-17.612-3.676-26.57-3.676h-.049c-.404 0-.809.004-1.213.008a122.27 122.27 0 0 0-11.324.396C61.63 27.32 43.895 35.634 31.797 44.173c-5.791 4.092-10.29 8.231-13.81 12.021 3.74-2.98 7.93-6.065 12.259-8.832 2.796-1.696 5.707-3.247 8.782-4.569 8.742-3.592 16.819-4.365 21.065-4.505.921.161 1.824.44 2.682.881l.351.18.216.324c.117.18.279.423.441.756.078.171.151.372.205.593l-.025.019-.252.207c-.234.18-.567.45-.999.801-.864.711-2.115 1.755-3.645 3.087A175.953 175.953 0 0 0 47.439 56.26c-8.824 9.255-18.635 21.754-22.654 34.408-2.028 5.549-3.161 11.107-3.479 16.583a63.565 63.565 0 0 0-.282 5.934c0 11.241 3.123 20.502 7.848 28.17 4.725 7.659 11.061 13.707 17.487 18.378 5.436 3.954 10.926 6.912 15.503 9.023-.37-.293-.737-.589-1.103-.887-6.174-5.04-13.617-12.267-18.63-21.114-2.009-3.537-3.629-7.343-4.604-11.372.272-1.587.909-3.199 2.03-4.728l.149-.207c.179 1.647.484 3.265.898 4.852a8.44 8.44 0 0 0-.237 1.996c0 1.431.342 2.907.855 4.392.52 1.471 1.2 2.941 1.855 4.358 2.925 5.754 7.201 10.948 12.21 15.855 3.66 2.868 6.954 5.216 11.245 7.752 1.297.499 2.432 1.174 3.499 1.807 1.107.657 2.142 1.251 3.168 1.629l-.972 2.844Zm-30.007-61.684a38.359 38.359 0 0 1-.912-4.951 48.273 48.273 0 0 1 2.725-4.363c.017 1.663.144 3.324.381 4.97a39.886 39.886 0 0 0-2.194 4.344Zm120.121-62.155a33.998 33.998 0 0 0-2.298-2.488c1.186-.32 2.295-.617 3.318-.889.76.818 1.475 1.663 2.146 2.531l-.031.008c-.955.255-2.004.534-3.135.838Z" style="fill:#f79863;fill-rule:nonzero" transform="scale(.48045)"/><path d="M72.765 83.749v-3.512c1.002-.599 2.01-1.188 3.024-1.767v3.469a153.773 153.773 0 0 0-3.024 1.81Zm62.501-24.138a18.55 18.55 0 0 0-2.308-2.455c.81-.235 1.617-.467 2.42-.698l.779-.223c.744.79 1.422 1.639 2.029 2.539-.966.275-1.941.555-2.92.837Z" style="fill:#f79863;fill-rule:nonzero" transform="scale(.48045)"/><path d="M107.214 68.18c.031-.497.072-.932.12-1.3a7.15 7.15 0 0 1 .189-1.026c.018-.07.039-.129.054-.174.12-.038.405-.096.855-.096.513 0 .765.09.828.117l.027.018.027.036h-.009c.045.045.243.567.36 1.422l.027.192-1.701.555-.777.256Z" style="fill:#fff;fill-rule:nonzero" transform="scale(.48045)"/><path d="M104.428 69.109c.047-1.34.153-2.431.317-3.273a541.574 541.574 0 0 1 6.572-2.143c.26.225.477.495.652.811.259.465.463 1.112.613 1.937-.975.31-1.939.62-2.89.928l-.027-.192c-.117-.855-.315-1.377-.36-1.422h.009l-.027-.036-.027-.018c-.063-.027-.315-.117-.828-.117-.45 0-.735.058-.855.096-.015.045-.036.104-.054.174a7.15 7.15 0 0 0-.189 1.026c-.048.368-.089.803-.12 1.3-.945.311-1.874.621-2.786.929Z" style="fill:#f79863;fill-rule:nonzero" transform="scale(.48045)"/><path d="M75.789 81.939V78.47a202.722 202.722 0 0 1 10.161-5.407c4.274-2.116 10.958-4.607 18.795-7.227-.164.842-.27 1.933-.317 3.273-7.23 2.44-13.353 4.753-17.137 6.645a194.356 194.356 0 0 0-11.502 6.185Zm36.793-15.498c-.15-.825-.354-1.472-.613-1.937a2.956 2.956 0 0 0-.652-.811c6.937-2.212 14.408-4.445 21.641-6.537a18.55 18.55 0 0 1 2.308 2.455c-7.546 2.173-15.41 4.516-22.684 6.83Z" style="fill:#6b8b7f;fill-rule:nonzero" transform="scale(.48045)"/><path d="m15.987-11.943-3.479 3.714V0H3.291v-32.915h9.217v13.683L25.25-32.915h10.251L22.053-18.338 36.206 0H25.391l-9.404-11.943ZM38.651-32.915h9.31V0h-9.31zM81.017-7.194V0H54.591v-32.915h25.815v7.195H63.807v5.548h14.624v6.959H63.807v6.019h17.21ZM86.189-32.915H95.5v25.533h15.705V0H86.189v-32.915Z" style="fill:#fff;fill-rule:nonzero" transform="translate(130.181 40.816) scale(.29774)"/><path d="M28.589-17.163c1.881.659 3.354 1.685 4.42 3.08 1.066 1.395 1.598 3.08 1.598 5.055 0 2.884-1.159 5.11-3.479 6.677C28.808-.784 25.454 0 21.065 0H3.291v-32.915h16.834c4.201 0 7.398.776 9.592 2.328 2.195 1.552 3.292 3.644 3.292 6.277 0 1.568-.384 2.97-1.152 4.209-.768 1.238-1.858 2.217-3.268 2.938Zm-16.081-9.028v6.348h6.394c3.135 0 4.703-1.066 4.703-3.197 0-2.101-1.568-3.151-4.703-3.151h-6.394Zm7.805 19.467c3.26 0 4.89-1.113 4.89-3.338 0-2.226-1.63-3.339-4.89-3.339h-7.805v6.677h7.805ZM61.503-6.395H47.585L44.999 0h-9.498L50.03-32.915h9.169L73.776 0H64.09l-2.587-6.395Zm-2.727-6.865-4.232-10.533-4.232 10.533h8.464ZM76.409-32.915h9.31v25.533h15.705V0H76.409v-32.915ZM109.042-25.532h-10.11v-7.383h29.482v7.383h-10.062V0h-9.31v-25.532ZM131.894-32.915h9.31V0h-9.31zM164.244.658c-3.448 0-6.543-.729-9.286-2.186-2.743-1.458-4.898-3.488-6.466-6.089-1.567-2.602-2.351-5.549-2.351-8.84 0-3.292.784-6.238 2.351-8.84 1.568-2.602 3.723-4.632 6.466-6.09 2.743-1.457 5.838-2.186 9.286-2.186 3.01 0 5.721.533 8.135 1.599 2.414 1.066 4.42 2.602 6.019 4.608l-5.925 5.36c-2.132-2.57-4.718-3.856-7.758-3.856-1.787 0-3.378.392-4.773 1.176a8.164 8.164 0 0 0-3.245 3.315c-.768 1.426-1.152 3.064-1.152 4.914 0 1.849.384 3.487 1.152 4.913a8.151 8.151 0 0 0 3.245 3.315c1.395.784 2.986 1.176 4.773 1.176 3.04 0 5.626-1.285 7.758-3.856l5.925 5.361c-1.599 2.006-3.605 3.542-6.019 4.608-2.414 1.065-5.125 1.598-8.135 1.598ZM227.535-32.915V0h-9.311v-12.837h-12.695V0h-9.31v-32.915h9.31v12.367h12.695v-12.367h9.311ZM249.305.658c-4.89 0-8.691-1.332-11.402-3.996-2.712-2.665-4.068-6.442-4.068-11.333v-18.244h9.311v17.962c0 5.267 2.084 7.9 6.253 7.9 4.138 0 6.207-2.633 6.207-7.9v-17.962h9.169v18.244c0 4.891-1.356 8.668-4.067 11.333-2.712 2.664-6.512 3.996-11.403 3.996ZM285.464-8.746h-5.078V0h-9.31v-32.915h15.047c2.978 0 5.564.494 7.758 1.481 2.195.988 3.887 2.399 5.079 4.232 1.191 1.834 1.786 3.989 1.786 6.466 0 2.382-.556 4.459-1.669 6.23-1.113 1.771-2.704 3.158-4.773 4.161L301.405 0h-9.969l-5.972-8.746Zm5.878-11.99c0-1.536-.486-2.727-1.458-3.574-.971-.846-2.413-1.269-4.325-1.269h-5.173v9.639h5.173c1.912 0 3.354-.415 4.325-1.246.972-.831 1.458-2.014 1.458-3.55ZM320.26-8.746h-5.078V0h-9.31v-32.915h15.046c2.978 0 5.564.494 7.759 1.481 2.194.988 3.887 2.399 5.078 4.232 1.191 1.834 1.787 3.989 1.787 6.466 0 2.382-.557 4.459-1.669 6.23-1.113 1.771-2.704 3.158-4.773 4.161L336.2 0h-9.968l-5.972-8.746Zm5.878-11.99c0-1.536-.486-2.727-1.458-3.574-.972-.846-2.414-1.269-4.326-1.269h-5.172v9.639h5.172c1.912 0 3.354-.415 4.326-1.246.972-.831 1.458-2.014 1.458-3.55ZM340.667-32.915h9.31V0h-9.31z" style="fill:#fff;fill-rule:nonzero" transform="translate(130.181 54.816) scale(.29774)"/><path d="M19.702.658c-3.448 0-6.544-.729-9.287-2.186C7.672-2.986 5.517-5.016 3.95-7.617c-1.568-2.602-2.351-5.549-2.351-8.84 0-3.292.783-6.238 2.351-8.84 1.567-2.602 3.722-4.632 6.465-6.09 2.743-1.457 5.839-2.186 9.287-2.186 3.009 0 5.721.533 8.134 1.599 2.414 1.066 4.42 2.602 6.019 4.608l-5.925 5.36c-2.131-2.57-4.717-3.856-7.758-3.856-1.787 0-3.378.392-4.773 1.176a8.161 8.161 0 0 0-3.244 3.315c-.768 1.426-1.152 3.064-1.152 4.914 0 1.849.384 3.487 1.152 4.913a8.149 8.149 0 0 0 3.244 3.315c1.395.784 2.986 1.176 4.773 1.176 3.041 0 5.627-1.285 7.758-3.856l5.925 5.361C32.256-3.542 30.25-2.006 27.836-.94 25.423.125 22.711.658 19.702.658ZM59.482-6.395H45.563L42.977 0h-9.498l14.529-32.915h9.17L71.754 0h-9.686l-2.586-6.395Zm-2.728-6.865-4.232-10.533-4.231 10.533h8.463ZM105.703-32.915V0h-7.664l-14.53-17.539V0h-9.122v-32.915h7.665l14.529 17.539v-17.539h9.122ZM138.712-7.194V0h-26.426v-32.915h25.815v7.195h-16.599v5.548h14.624v6.959h-14.624v6.019h17.21ZM155.451.658c-2.664 0-5.25-.329-7.758-.987-2.508-.658-4.545-1.536-6.113-2.633l3.057-6.865c1.473.971 3.181 1.755 5.125 2.351 1.943.595 3.856.893 5.736.893 3.574 0 5.361-.893 5.361-2.68 0-.941-.51-1.638-1.528-2.093-1.019-.454-2.657-.932-4.914-1.434-2.476-.533-4.545-1.105-6.207-1.716a10.446 10.446 0 0 1-4.279-2.939c-1.191-1.348-1.787-3.166-1.787-5.454 0-2.006.549-3.817 1.646-5.431 1.097-1.615 2.735-2.892 4.914-3.832 2.179-.941 4.851-1.411 8.017-1.411 2.163 0 4.295.243 6.395.729 2.1.486 3.95 1.199 5.548 2.139l-2.868 6.912c-3.135-1.692-6.175-2.539-9.122-2.539-1.85 0-3.197.275-4.044.823-.846.549-1.269 1.262-1.269 2.14 0 .877.501 1.536 1.504 1.974 1.003.439 2.618.894 4.843 1.364 2.508.533 4.585 1.105 6.231 1.716a10.766 10.766 0 0 1 4.279 2.916c1.206 1.332 1.81 3.142 1.81 5.431 0 1.974-.549 3.761-1.646 5.36-1.097 1.599-2.743 2.876-4.937 3.832-2.194.956-4.859 1.434-7.994 1.434Z" style="fill:#f47d30;fill-rule:nonzero" transform="translate(235.378 54.816) scale(.29774)"/><defs><linearGradient id="a" x1="0" y1="0" x2="1" y2="0" gradientUnits="userSpaceOnUse" gradientTransform="translate(4.267 97.815) scale(167.08)"><stop offset="0" style="stop-color:white;stop-opacity:1"/><stop offset="1" style="stop-color:white;stop-opacity:1"/></linearGradient><linearGradient id="b" x1="0" y1="0" x2="1" y2="0" gradientUnits="userSpaceOnUse" gradientTransform="translate(4.267 97.815) scale(167.08)"><stop offset="0" style="stop-color:#6b8b7f;stop-opacity:1"/><stop offset="1" style="stop-color:#6b8b7f;stop-opacity:1"/></linearGradient><linearGradient id="c" x1="0" y1="0" x2="1" y2="0" gradientUnits="userSpaceOnUse" gradientTransform="translate(4.267 97.815) scale(167.08)"><stop offset="0" style="stop-color:#f79863;stop-opacity:1"/><stop offset="1" style="stop-color:#f79863;stop-opacity:1"/></linearGradient><linearGradient id="d" x1="0" y1="0" x2="1" y2="0" gradientUnits="userSpaceOnUse" gradientTransform="translate(4.267 97.815) scale(167.08)"><stop offset="0" style="stop-color:#f79863;stop-opacity:1"/><stop offset="1" style="stop-color:#f79863;stop-opacity:1"/></linearGradient><linearGradient id="e" x1="0" y1="0" x2="1" y2="0" gradientUnits="userSpaceOnUse" gradientTransform="translate(4.267 97.815) scale(167.08)"><stop offset="0" style="stop-color:#6b8b7f;stop-opacity:1"/><stop offset="1" style="stop-color:#6b8b7f;stop-opacity:1"/></linearGradient></defs></svg>